HIERARCHY
ROOT Hips
{
	OFFSET -3.958830 18.904000 13.208200
	CHANNELS 6 Xposition Yposition Zposition Zrotation Yrotation Xrotation 
	JOINT LHipJoint
	{
		OFFSET 0.000000 0.000000 0.000000
		CHANNELS 3 Zrotation Yrotation Xrotation
		JOINT LeftUpLeg
		{
			OFFSET 1.800000 -1.400000 0.085000
			CHANNELS 3 Zrotation Yrotation Xrotation
			JOINT LeftLeg
			{
				OFFSET 2.215000 -6.000000 0.000000
				CHANNELS 3 Zrotation Yrotation Xrotation
				JOINT LeftFoot
				{
					OFFSET 2.500000 -6.900000 0.000000
					CHANNELS 3 Zrotation Yrotation Xrotation
					JOINT LeftToeBase
					{
						OFFSET 0.200000 -0.500000 1.950000
						CHANNELS 3 Zrotation Yrotation Xrotation
						End Site
						{
							OFFSET 0.000000 0.000000 0.000000
						}
					}
				}
			}
		}
	}
	JOINT RHipJoint
	{
		OFFSET 0.000000 0.000000 0.000000
		CHANNELS 3 Zrotation Yrotation Xrotation
		JOINT RightUpLeg
		{
			OFFSET -1.800000 -1.400000 0.085000
			CHANNELS 3 Zrotation Yrotation Xrotation
			JOINT RightLeg
			{
				OFFSET -2.215000 -6.000000 0.000000
				CHANNELS 3 Zrotation Yrotation Xrotation
				JOINT RightFoot
				{
					OFFSET -2.500000 -6.900000 0.000000
					CHANNELS 3 Zrotation Yrotation Xrotation
					JOINT RightToeBase
					{
						OFFSET -0.200000 -0.500000 1.950000
						CHANNELS 3 Zrotation Yrotation Xrotation
						End Site
						{
							OFFSET 0.000000 0.000000 0.000000
						}
					}
				}
			}
		}
	}
	JOINT LowerBack
	{
		OFFSET 0.000000 0.000000 0.000000
		CHANNELS 3 Zrotation Yrotation Xrotation
		JOINT Spine
		{
			OFFSET -0.087000 1.940000 -0.288900
			CHANNELS 3 Zrotation Yrotation Xrotation
			JOINT Spine1
			{
				OFFSET 0.000000 1.950000 0.060000
				CHANNELS 3 Zrotation Yrotation Xrotation
				JOINT Neck
				{
					OFFSET 0.000000 0.000000 0.000000
					CHANNELS 3 Zrotation Yrotation Xrotation
					JOINT Neck1
					{
						OFFSET 0.000000 1.600000 0.340000
						CHANNELS 3 Zrotation Yrotation Xrotation
						JOINT Head
						{
							OFFSET 0.000000 1.667000 -0.240000
							CHANNELS 3 Zrotation Yrotation Xrotation
							End Site
							{
								OFFSET 0.000000 0.000000 0.000000
							}
						}
					}
				}
				JOINT LeftShoulder
				{
					OFFSET 0.000000 0.000000 0.000000
					CHANNELS 3 Zrotation Yrotation Xrotation
					JOINT LeftArm
					{
						OFFSET 2.700000 1.550000 -0.730000
						CHANNELS 3 Zrotation Yrotation Xrotation
						JOINT LeftForeArm
						{
							OFFSET 5.450000 0.000000 0.000000
							CHANNELS 3 Zrotation Yrotation Xrotation
							JOINT LeftHand
							{
								OFFSET 3.450000 0.000000 0.000000
								CHANNELS 3 Zrotation Yrotation Xrotation
								JOINT LeftHandIndex1
								{
									OFFSET 0.750000 0.000000 0.000000
									CHANNELS 3 Zrotation Yrotation Xrotation
									End Site
									{
										OFFSET 0.000000 0.000000 0.000000
									}
								}
							}
						}
					}
				}
				JOINT RightShoulder
				{
					OFFSET 0.000000 0.000000 0.000000
					CHANNELS 3 Zrotation Yrotation Xrotation
					JOINT RightArm
					{
						OFFSET -2.700000 1.550000 -0.730000
						CHANNELS 3 Zrotation Yrotation Xrotation
						JOINT RightForeArm
						{
							OFFSET -5.450000 0.000000 0.000000
							CHANNELS 3 Zrotation Yrotation Xrotation
							JOINT RightHand
							{
								OFFSET -3.450000 0.000000 0.000000
								CHANNELS 3 Zrotation Yrotation Xrotation
								JOINT RightHandIndex1
								{
									OFFSET -0.750000 0.000000 0.000000
									CHANNELS 3 Zrotation Yrotation Xrotation
									End Site
									{
										OFFSET 0.000000 0.000000 0.000000
									}
								}
							}
						}
					}
				}
			}
		}
	}
}
MOTION
Frames: 6
Frame Time: 0.016667
-0.154810 17.202850 -3.122630 2.619530 -5.389155 1.262593 -14.888916 13.818574 3.238753 9.448174 -0.488545 -6.789418 -11.337090 6.396325 8.295704 -0.286272 4.739984 3.067681 0.355030 0.140480 0.197460 18.384902 -10.994229 2.509080 -3.498155 2.582046 -19.197501 -0.334902 -4.157254 24.355046 -0.193051 -3.279223 3.280112 0.123930 0.194150 0.140400 -4.035738 -2.295877 -7.370773 24.187208 -11.304209 21.677585 -13.910809 -6.705358 8.562549 8.905571 -10.818220 -11.411491 -20.696611 9.007004 28.669140 -9.001500 5.199500 -14.813200 -22.045912 -9.077307 4.644858 -32.460703 1.061330 -1.175351 6.966712 -3.200784 -0.814150 -3.863299 2.867791 0.442790 0.072260 -0.046550 0.148260 4.222206 17.704490 6.560632 6.925710 13.795245 -10.629523 -120.380826 19.816007 -45.174976 1.840748 -1.951862 -0.165240 0.280380 0.069220 -0.184780 
-0.156700 17.237630 -3.153050 2.953477 -5.715966 1.842896 -14.942474 13.814322 3.334807 7.469561 -0.720411 -7.850256 -12.542144 6.600511 8.982108 -0.274649 4.721808 3.064791 0.384710 0.191760 0.215020 18.331941 -10.957334 2.492339 -3.923795 2.216095 -18.872850 0.126125 -3.977398 21.909651 -0.154520 -3.063476 3.366116 0.154830 0.193340 0.149860 -3.883443 -2.420351 -7.443030 22.034320 -9.958695 21.833840 -11.371396 -6.299157 8.880701 8.531605 -10.564484 -11.196685 -19.934811 8.767731 28.610860 -9.528620 5.431990 -14.807400 -22.083836 -9.592353 4.582858 -33.738062 -0.210469 -1.006774 6.841910 -2.594292 -0.780521 -3.893314 2.878531 0.412030 0.093420 -0.043450 0.159750 5.161812 18.581443 6.369944 7.227092 16.208517 -9.964268 -124.910714 15.634109 -42.637762 1.819466 -2.049316 -0.147800 0.274810 0.045920 -0.177470 
-0.155570 17.278920 -3.187300 3.026175 -6.550545 2.248992 -15.001809 13.822030 3.424330 5.597612 -0.957980 -8.834036 -13.285594 6.686721 9.432751 -0.267622 4.647782 3.084347 0.423550 0.252970 0.229960 18.273723 -10.888970 2.494669 -4.361027 1.844288 -18.092570 1.060121 -3.872397 18.963769 -0.135087 -2.859941 3.452976 0.187650 0.178960 0.139980 -3.708036 -2.602163 -7.526553 20.259821 -8.659875 22.637743 -9.108037 -5.622505 8.830854 8.259098 -10.550435 -11.098722 -19.812878 8.750863 28.610938 -9.467150 5.470910 -15.271690 -22.394549 -9.882852 4.386453 -34.860924 -1.209949 -1.075763 6.920809 -2.964970 -0.825007 -3.872016 2.891252 0.403810 0.086120 -0.031050 0.180850 6.153335 19.484327 6.375310 7.018343 17.571385 -9.230958 -129.512400 13.093195 -42.148300 1.795361 -2.118200 -0.136450 0.278040 0.012270 -0.169290 
-0.155450 17.320930 -3.218880 2.832774 -7.415473 2.583681 -15.075894 13.863760 3.508954 4.019487 -1.191512 -9.800465 -13.636500 6.672612 9.605427 -0.253705 4.552064 3.117689 0.425590 0.261890 0.228830 18.198581 -10.768977 2.524043 -4.833186 1.565443 -17.201431 2.435789 -3.886673 16.184848 -0.120270 -2.727451 3.520808 0.185070 0.169430 0.126320 -3.487336 -2.907953 -7.646730 18.735608 -7.341262 23.687986 -6.920114 -4.603996 8.377415 8.100397 -10.437746 -11.245298 -19.758201 8.264895 29.181976 -9.573490 5.101770 -15.224550 -23.107794 -10.343003 4.232573 -35.565876 -1.873495 -1.245647 6.853706 -3.637387 -0.894431 -3.845496 2.887512 0.400920 0.074720 -0.024910 0.189360 7.276014 20.571555 6.758987 6.803504 17.415492 -8.771480 -133.992914 11.714047 -43.608085 1.774921 -2.156292 -0.131770 0.281090 -0.002330 -0.162020 
-0.151010 17.342450 -3.235970 2.311602 -8.754392 3.427404 -15.087369 13.763343 3.555810 2.537077 -1.444671 -10.882546 -13.702201 6.458553 9.184930 -0.263406 4.386333 3.180214 0.423200 0.251560 0.233280 18.196171 -10.717587 2.594446 -5.004207 1.558085 -17.274734 3.667815 -3.916058 14.335149 -0.108146 -2.668300 3.544620 0.176640 0.173190 0.137840 -3.454103 -2.825102 -7.717273 18.221740 -6.134621 23.685976 -5.740444 -3.505992 8.088869 7.789714 -10.044364 -11.142531 -18.902519 7.723587 29.397901 -9.742800 4.945130 -14.638860 -23.331720 -10.283529 4.003122 -36.122917 -2.238002 -1.489329 6.114261 -4.803370 -0.999516 -3.845084 2.895607 0.388190 0.083820 -0.027260 0.194370 8.098148 20.623739 6.934883 7.397156 17.501560 -7.881888 -137.559412 11.795870 -47.534440 1.749603 -2.178370 -0.124870 0.266780 -0.010350 -0.158590 
-0.144800 17.357580 -3.254750 1.377322 -9.850512 4.244277 -15.081184 13.678135 3.567011 1.517154 -1.638269 -11.978225 -13.196656 6.139205 8.696910 -0.298059 4.172712 3.252590 0.402040 0.227950 0.222310 18.210981 -10.672270 2.682040 -4.737987 1.731701 -17.703089 4.812223 -3.997416 13.384489 -0.097155 -2.640717 3.552370 0.160400 0.171100 0.141420 -3.474113 -2.727955 -7.757096 18.456764 -5.392257 23.802597 -5.033107 -2.575174 7.782051 7.504613 -9.745699 -11.055062 -18.233548 7.047752 29.302191 -10.384650 4.678870 -14.580000 -23.374622 -10.092951 3.823520 -36.597773 -2.315983 -1.851804 5.078862 -6.581453 -1.111701 -3.835565 2.895249 0.381340 0.087260 -0.031250 0.186260 8.646328 20.404328 7.076319 8.044079 17.198391 -7.214685 -140.189323 13.252692 -54.419947 1.726343 -2.150083 -0.123700 0.256080 -0.001050 -0.158090 
